<?xml version="1.0" encoding="utf-8"?>
<!-- Generator: Adobe Illustrator 23.0.1, SVG Export Plug-In . SVG Version: 6.00 Build 0)  -->
<svg version="1.1" id="Layer_1" xmlns="http://www.w3.org/2000/svg" xmlns:xlink="http://www.w3.org/1999/xlink" x="0px" y="0px"
	 viewBox="0 0 16 16" style="enable-background:new 0 0 16 16;" xml:space="preserve">
<style type="text/css">
	.st0{fill:#2B3A51;}
</style>
<path class="st0" d="M9.3,0H4C2.9,0,2,0.9,2,2v12c0,1.1,0.9,2,2,2h8c1.1,0,2-0.9,2-2V4.7c0-0.3-0.1-0.5-0.3-0.7L10,0.3
	C9.8,0.1,9.6,0,9.3,0z M9.5,3.5v-2l3,3h-2C9.9,4.5,9.5,4.1,9.5,3.5z M6.6,7.6c0.2-0.2,0.5-0.2,0.7,0s0.2,0.5,0,0.7L5.7,10l1.6,1.6
	c0.2,0.2,0.2,0.5,0,0.7s-0.5,0.2-0.7,0l-2-2c-0.2-0.2-0.2-0.5,0-0.7c0,0,0,0,0,0C4.6,9.6,6.6,7.6,6.6,7.6z M9.4,7.6l2,2
	c0.2,0.2,0.2,0.5,0,0.7c0,0,0,0,0,0l-2,2c-0.2,0.2-0.5,0.2-0.7,0s-0.2-0.5,0-0.7l1.6-1.6L8.6,8.4c-0.2-0.2-0.2-0.5,0-0.7
	S9.2,7.5,9.4,7.6z"/>
</svg>
