<svg xmlns="http://www.w3.org/2000/svg" width="3750" height="3750" viewBox="0 0 3750 3750">
  <defs>
    <style>
      .cls-1 {
        fill: #2b3a51;
        fill-rule: evenodd;
      }
    </style>
  </defs>
  <path id="g" class="cls-1" d="M272.612,898.891V2382.3q0,10.995,11,11H1074.77v186.79H283.612q-9.633,0-11,10.99V2854.8q0,10.965,11,10.98H1767.02q10.995,0,11-10.98V898.891q0-9.609-11-11H283.612q-9.633,0-11,11h0Zm802.158,269.2v939.5H552.815v-939.5H1074.77Zm417.54,0v1412H1360.46v-1412h131.85Z"/>
  <path id="b" class="cls-1" d="M1971.61,909.36V2843.3q0,10.995,11,11H3466.02q10.995,0,11-11V1359.89q0-9.615-11-11H2674.86V909.36q0-9.609-10.98-10.984H1982.61q-8.25,0-11,10.984h0Zm417.56,274.72V2568.59H2257.31V1184.08h131.86Zm802.14,450.51v934H2674.86v-934h516.45Z"/>
</svg>
