<svg version="1.2" xmlns="http://www.w3.org/2000/svg" viewBox="0 0 3750 3750" width="3750" height="3750">
	<title>favicon-dark-svg</title>
	<style>
		.s0 { fill: #2b3a51 } 
	</style>
	<path id="g" fill-rule="evenodd" class="s0" d="m283.6 887.9h1483.4q11 1.4 11 11v1955.9q0 11-11 11h-1483.4q-11 0-11-11v-263.7q1.4-11 11-11h791.2v-186.8h-791.2q-11 0-11-11v-1483.4q1.4-11 11-11zm269.2 280.2v939.5h522v-939.5zm807.6 0v1412h131.9v-1412zm622.1-269.7h681.3q11 1.4 11 11v439.5h791.1q11 1.4 11 11v1483.4q0 11-11 11h-1483.4q-11 0-11-11v-1933.9q2.8-11 11-11zm274.7 285.7v1384.5h131.9v-1384.5zm417.5 450.5v934h516.5v-934z"/>
</svg>