<?xml version="1.0" encoding="utf-8"?>
<!-- Generator: Adobe Illustrator 23.0.1, SVG Export Plug-In . SVG Version: 6.00 Build 0)  -->
<svg version="1.1" id="Layer_1" xmlns="http://www.w3.org/2000/svg" xmlns:xlink="http://www.w3.org/1999/xlink" x="0px" y="0px"
	 viewBox="0 0 16 16" style="enable-background:new 0 0 16 16;" xml:space="preserve">
<style type="text/css">
	.st0{fill-rule:evenodd;clip-rule:evenodd;fill:#2B3A51;}
	.st1{fill:#2B3A51;}
</style>
<path class="st0" d="M0,10.5C0,9.7,0.7,9,1.5,9h1C3.3,9,4,9.7,4,10.5v1C4,12.3,3.3,13,2.5,13h-1C0.7,13,0,12.3,0,11.5V10.5z M1.5,10
	C1.2,10,1,10.2,1,10.5v1C1,11.8,1.2,12,1.5,12h1C2.8,12,3,11.8,3,11.5v-1C3,10.2,2.8,10,2.5,10H1.5z M12,10.5C12,9.7,12.7,9,13.5,9
	h1c0.8,0,1.5,0.7,1.5,1.5v1c0,0.8-0.7,1.5-1.5,1.5h-1c-0.8,0-1.5-0.7-1.5-1.5V10.5z M13.5,10c-0.3,0-0.5,0.2-0.5,0.5v1
	c0,0.3,0.2,0.5,0.5,0.5h1c0.3,0,0.5-0.2,0.5-0.5v-1c0-0.3-0.2-0.5-0.5-0.5H13.5z M6,4.5C6,3.7,6.7,3,7.5,3h1C9.3,3,10,3.7,10,4.5v1
	C10,6.3,9.3,7,8.5,7h-1C6.7,7,6,6.3,6,5.5V4.5z M7.5,4C7.2,4,7,4.2,7,4.5v1C7,5.8,7.2,6,7.5,6h1C8.8,6,9,5.8,9,5.5v-1
	C9,4.2,8.8,4,8.5,4H7.5z"/>
<path class="st1" d="M6,4.5H1.9C1.6,4,1,3.9,0.5,4.1S-0.1,5,0.1,5.5S1,6.1,1.5,5.9c0.2-0.1,0.3-0.2,0.4-0.4h2.7
	C3.2,6.3,2.3,7.6,1.8,9h0.7c0.1,0,0.2,0,0.4,0C3.4,7.6,4.6,6.4,6,5.9c0-0.1,0-0.2,0-0.4V4.5z M10,5.9c0-0.1,0-0.2,0-0.4v-1h4.1
	C14.4,4,15,3.9,15.5,4.1C16,4.4,16.1,5,15.9,5.5S15,6.1,14.5,5.9c-0.2-0.1-0.3-0.2-0.4-0.4h-2.7c1.3,0.8,2.3,2.1,2.7,3.5h-0.7
	c-0.1,0-0.2,0-0.4,0C12.6,7.6,11.4,6.4,10,5.9z"/>
</svg>
