<svg xmlns="http://www.w3.org/2000/svg" viewBox="0 0 417 470.01"><defs><style>.cls-1{fill:#212529;}.cls-1,.cls-2,.cls-3,.cls-4,.cls-5,.cls-6,.cls-7,.cls-8,.cls-9{stroke:#000;stroke-miterlimit:10;}.cls-1,.cls-2,.cls-3,.cls-4,.cls-5,.cls-6,.cls-7{stroke-width:5px;}.cls-2{fill:#cde6fa;}.cls-3,.cls-7,.cls-9{fill:none;}.cls-4{fill:#f9e7c3;}.cls-5{fill:#ffe2c5;}.cls-6{fill:#4c1f06;}.cls-7,.cls-8,.cls-9{stroke-linecap:round;}.cls-8{fill:#faead1;}.cls-8,.cls-9{stroke-width:4px;}</style></defs><title>Mio logo</title><g id="cerchio"><circle class="cls-1" cx="208.5" cy="261.5" r="206"/></g><g id="petto"><path class="cls-2" d="M448.42,468.5l-179,90c38.4,67.48,100,99.21,179,104,14.25-1.46,33.31-2.42,45.08-5,60.44-13.24,104.46-44,133.92-99Z" transform="translate(-239.92 -195)"/></g><g id="coll"><path class="cls-3" d="M378.92,504c45,72.14,91.29,75.7,139,0l-69-35Z" transform="translate(-239.92 -195)"/></g><g id="orecchie"><circle class="cls-4" cx="292.58" cy="169.5" r="16"/></g><g id="orecchie_copy" data-name="orecchie copy"><circle class="cls-4" cx="118.58" cy="169.5" r="16"/></g><g id="collo"><path class="cls-5" d="M161.5,232.5h94a0,0,0,0,1,0,0v56a47,47,0,0,1-47,47h0a47,47,0,0,1-47-47v-56a0,0,0,0,1,0,0Z"/></g><g id="testa"><path class="cls-5" d="M127.9,43.5H284.26a5.32,5.32,0,0,1,5.32,5.32v153a63.64,63.64,0,0,1-63.64,63.64H186.22a63.64,63.64,0,0,1-63.64-63.64v-153A5.32,5.32,0,0,1,127.9,43.5Z"/></g><g id="hair"><path class="cls-6" d="M536.63,348q19.82-72.13,7.88-97.51l0,0c-10.78-19.91-25.91-34.1-48.88-38a.5.5,0,0,1-.2-.08c-16.34-10-39.43-14.89-68.88-14.94h-.06c-24.38,2.06-44.2,9.51-59,23l0,0c-15.94,11.42-24.57,25.62-25,43v.06c-3.64,26.46.36,54.74,10.85,84.55a.64.64,0,0,0,.6.42h6.93a.64.64,0,0,0,.63-.62l.91-69.51a23.56,23.56,0,0,1,3.17-11.46c9-15.52,16.4-21.27,26.92-21.44a.63.63,0,0,1,.38,1.14c-6.06,4.44-7.88,9.08-6.39,13.89,1.5,7.14,7.76,8.19,15,8,22.65.53,54.34-8.21,90.91-22a.59.59,0,0,1,.19,0c19.08-1.08,31.59,7.57,36.88,26.92a1.1,1.1,0,0,1,0,.18v74.28a.63.63,0,0,0,.63.63H536A.64.64,0,0,0,536.63,348Z" transform="translate(-239.92 -195)"/></g><g id="occhi"><circle cx="162.58" cy="148.5" r="7.5"/><path class="cls-7" d="M388,346c5.49-10.72,14-13.42,26-7" transform="translate(-239.92 -195)"/></g><g id="occhi_copy" data-name="occhi copy"><circle cx="247.58" cy="148.5" r="7.5"/><path class="cls-7" d="M502,346c-5.49-10.72-14-13.42-26-7" transform="translate(-239.92 -195)"/></g><g id="noise"><path class="cls-8" d="M437,389q9.5,10.56,19,0" transform="translate(-239.92 -195)"/></g><g id="mouths"><path class="cls-8" d="M427,410.44q21,19.29,42,0" transform="translate(-239.92 -195)"/></g><g id="supperbrowns"><path class="cls-8" d="M380,316a181.84,181.84,0,0,1,38-2" transform="translate(-239.92 -195)"/></g><g id="supperbrowns_copy" data-name="supperbrowns copy"><path class="cls-8" d="M508,316a181.84,181.84,0,0,0-38-2" transform="translate(-239.92 -195)"/></g><g id="b"><path class="cls-9" d="M410,252c23.63-1.64,51.88-11.08,81-22" transform="translate(-239.92 -195)"/></g></svg>