<svg id="Layer_1" data-name="Layer 1" xmlns="http://www.w3.org/2000/svg" viewBox="0 0 16 16"><defs><style>.cls-1{fill:#fff;}</style></defs><title>linkedin</title><path class="cls-1" d="M0,1.15A1.16,1.16,0,0,1,1.17,0H14.82A1.16,1.16,0,0,1,16,1.15v13.7A1.16,1.16,0,0,1,14.82,16H1.17A1.16,1.16,0,0,1,0,14.85ZM4.94,13.39V6.17H2.54v7.22ZM3.74,5.18A1.25,1.25,0,0,0,5.1,3.93,1.24,1.24,0,0,0,3.76,2.69,1.25,1.25,0,0,0,2.4,3.93,1.24,1.24,0,0,0,3.73,5.18Zm4.91,8.21v-4a1.76,1.76,0,0,1,.08-.59A1.31,1.31,0,0,1,10,7.89c.87,0,1.22.67,1.22,1.64v3.86h2.4V9.25C13.58,7,12.4,6,10.82,6A2.39,2.39,0,0,0,8.65,7.19v0h0v-1H6.25c0,.68,0,7.22,0,7.22Z"/></svg>