<svg id="Layer_1" data-name="Layer 1" xmlns="http://www.w3.org/2000/svg" viewBox="0 0 364.95 188"><defs><style>.cls-1,.cls-4,.cls-5{fill:#fff;}.cls-2,.cls-3,.cls-6{fill:none;stroke:#fff;}.cls-2,.cls-3{stroke-linejoin:round;}.cls-2{stroke-width:3px;}.cls-3{stroke-linecap:round;stroke-width:3.09px;}.cls-4{font-size:38px;letter-spacing:-0.04em;}.cls-4,.cls-5{font-family:HeavyRain, Heavy Rain;}.cls-5{font-size:13px;letter-spacing:-0.04em;}.cls-6{stroke-miterlimit:10;stroke-width:2px;}</style></defs><title>logo2</title><circle class="cls-1" cx="113.24" cy="49.2" r="10.08"/><circle class="cls-1" cx="107.1" cy="80.94" r="1.5"/><circle class="cls-1" cx="122.76" cy="17.16" r="3.48"/><circle class="cls-1" cx="158.1" cy="37.62" r="2.82"/><circle class="cls-1" cx="159.69" cy="23.24" r="2.59"/><circle class="cls-1" cx="203.88" cy="16.68" r="1.32"/><circle class="cls-1" cx="222.02" cy="35.82" r="8.22"/><circle class="cls-1" cx="235.15" cy="23.24" r="2.59"/><circle class="cls-1" cx="243" cy="2.52" r="2.52"/><circle class="cls-1" cx="263.19" cy="41.31" r="0.87"/><circle class="cls-1" cx="253.38" cy="66.18" r="2.82"/><circle class="cls-1" cx="267.63" cy="79.24" r="3.44"/><path class="cls-2" d="M922.52,500.92C887.33,471.42,862,444.8,856.4,424a2.81,2.81,0,0,1,3.46-3.4c11.41,2.93,28.81,16,52,38.81" transform="translate(-753.8 -394.12)"/><path class="cls-2" d="M950.28,494c25.2-14.7,44.17-32.1,49.61-50.4a2,2,0,0,0-2.53-2.4c-9.29,3.07-20.43,11-31,20.51" transform="translate(-753.8 -394.12)"/><path class="cls-3" d="M987.67,501.72a50.53,50.53,0,0,0-101,0C886.62,502.1,987.68,502.1,987.67,501.72Z" transform="translate(-753.8 -394.12)"/><ellipse class="cls-1" cx="184.08" cy="107.6" rx="93.36" ry="2.8"/><text class="cls-4" transform="translate(0 153.96)"><tspan xml:space="preserve">o p e n  s p a c e</tspan></text><text class="cls-5" transform="translate(156.58 182.8)">s h o p</text><path class="cls-6" d="M931.78,424.58c1.31,32.53,1.4,61.78-4.32,75.34" transform="translate(-753.8 -394.12)"/><path class="cls-6" d="M942.19,424.58c-1.31,32.53-1.4,61.78,4.32,75.34" transform="translate(-753.8 -394.12)"/><line class="cls-6" x1="183.2" y1="104.8" x2="183.2" y2="18"/><path class="cls-6" d="M919.52,500.92c8.57-9.56,9.78-30.71,7.38-57.52" transform="translate(-753.8 -394.12)"/><path class="cls-6" d="M954.51,500.92c-8.57-9.56-9.77-30.71-7.38-57.52" transform="translate(-753.8 -394.12)"/><rect class="cls-1" x="171.36" y="45.12" width="2.82" height="6.18" rx="1.41"/><rect class="cls-1" x="946.05" y="439.24" width="2.82" height="6.18" rx="1.41" transform="translate(1141.11 490.54) rotate(-180)"/><rect class="cls-1" x="187.36" y="25.83" width="2.82" height="6.18" rx="1.41"/><rect class="cls-1" x="176.18" y="25.83" width="2.82" height="6.18" rx="1.41"/><rect class="cls-1" x="181.79" y="13.59" width="2.82" height="6.18" rx="1.41"/></svg>