<svg id="Layer_1" data-name="Layer 1" xmlns="http://www.w3.org/2000/svg" viewBox="0 0 266.04 155.72"><defs><style>.cls-1{font-size:40px;font-family:ConthraxSb-Regular, Conthrax;}.cls-1,.cls-2{fill:#fff;}.cls-3{fill:none;stroke:#fff;stroke-miterlimit:10;stroke-width:7px;}</style></defs><title>logo3</title><text class="cls-1" transform="translate(0 144.84)"><tspan xml:space="preserve">B I O   N I C</tspan></text><circle class="cls-2" cx="133.11" cy="130.75" r="5.67"/><path class="cls-2" d="M868.72,416.9a5.1,5.1,0,0,0-3.27,1.18h0a5.12,5.12,0,0,0-.63,7.19L889,454a5.1,5.1,0,0,0,7.82-6.55l-24.15-28.78a5.1,5.1,0,0,0-3.91-1.81Z" transform="translate(-814.96 -416.6)"/><path class="cls-2" d="M840.3,487a5.87,5.87,0,0,0-4.51,2.09h0a5.9,5.9,0,0,0,.72,8.29l27.58,23.14a5.88,5.88,0,0,0,8.28-.73h0a5.89,5.89,0,0,0-.72-8.28l-27.58-23.14A5.86,5.86,0,0,0,840.3,487Z" transform="translate(-814.96 -416.6)"/><path class="cls-2" d="M867.86,416.6a5.86,5.86,0,0,0-3.77,1.37l-27.58,23.14a5.88,5.88,0,0,0,7.56,9L871.65,427a5.89,5.89,0,0,0,.72-8.28h0a5.87,5.87,0,0,0-4.51-2.09Z" transform="translate(-814.96 -416.6)"/><path class="cls-2" d="M892.88,483.06a5.13,5.13,0,0,0-3.92,1.81l-24.14,28.78a5.11,5.11,0,0,0,.63,7.18,5.1,5.1,0,0,0,7.18-.63l24.15-28.77a5.12,5.12,0,0,0-.63-7.19h0a5.12,5.12,0,0,0-3.27-1.18Z" transform="translate(-814.96 -416.6)"/><path class="cls-2" d="M908.2,450.11a18.56,18.56,0,1,1-18.56,18.56,18.59,18.59,0,0,1,18.56-18.56m0-7a25.56,25.56,0,1,0,25.56,25.56,25.56,25.56,0,0,0-25.56-25.56Z" transform="translate(-814.96 -416.6)"/><path class="cls-2" d="M975,439.43a29.24,29.24,0,1,1-29.24,29.24A29.28,29.28,0,0,1,975,439.43m0-7a36.24,36.24,0,1,0,36.24,36.24A36.25,36.25,0,0,0,975,432.43Z" transform="translate(-814.96 -416.6)"/><path class="cls-3" d="M1056.88,432.43a36.24,36.24,0,0,0,0,72.48" transform="translate(-814.96 -416.6)"/><circle class="cls-2" cx="244.86" cy="15.84" r="5.1"/><circle class="cls-2" cx="244.86" cy="88.32" r="5.1"/><rect class="cls-2" x="234" y="29.13" width="5.76" height="44.88" rx="2.88"/><rect class="cls-2" x="219.12" y="35.28" width="5.76" height="32.57" rx="2.45"/><rect class="cls-2" x="173.6" y="35.28" width="5.76" height="32.57" rx="2.45"/><rect class="cls-2" x="141.46" y="35.28" width="5.76" height="32.57" rx="2.45"/><rect class="cls-2" x="157.2" y="29.13" width="5.76" height="44.88" rx="2.88"/></svg>