<svg id="Layer_1" data-name="Layer 1" xmlns="http://www.w3.org/2000/svg" viewBox="0 0 481.43 212.47"><defs><style>.cls-1{font-size:100px;font-family:adelia;letter-spacing:-0.01em;}.cls-1,.cls-3,.cls-5{fill:#fff;}.cls-2{font-size:70px;letter-spacing:-0.01em;}.cls-4{fill:none;stroke:#fff;stroke-miterlimit:10;stroke-width:4.51px;}.cls-5{font-size:20px;font-family:LouisGeorgeCafe-Bold, Louis George Café;font-weight:700;letter-spacing:-0.01em;}</style></defs><title>logo1</title><text class="cls-1" transform="translate(0.02 125.07)">A<tspan class="cls-2" x="141.7" y="0">ttardo</tspan></text><rect class="cls-3" x="273.6" y="59.75" width="85.96" height="2.88" rx="1.44"/><rect class="cls-3" x="395.51" y="59.75" width="84.88" height="2.88" rx="1.44"/><rect class="cls-3" x="470.39" y="59.75" width="11.04" height="5.28" rx="2.64"/><rect class="cls-3" x="452.11" y="72.23" width="12" height="12" rx="2.4"/><path class="cls-3" d="M1033.86,451.76l9.14-12.38a2.35,2.35,0,0,1,1.94-1h22.5a2.34,2.34,0,0,1,1.92,1l8.57,12.4c.7,1,.09,1.53-.84,2.31h0a2.36,2.36,0,0,1-3.27-.26c-11.67-13.25-23.31-13.31-34.92,0a2.34,2.34,0,0,1-3.23.3l-1.81-1.44" transform="translate(-678.57 -392.01)"/><circle class="cls-4" cx="377.48" cy="94.47" r="22.75"/><path class="cls-3" d="M1056,474.37a12.12,12.12,0,1,0,12.12,12.12A12.12,12.12,0,0,0,1056,474.37Zm7.08,11.47a6.44,6.44,0,0,0-6.92-6.56c-1.29.07-1.28-1.93,0-2a8.45,8.45,0,0,1,8.92,8.56A1,1,0,0,1,1063.12,485.84Z" transform="translate(-678.57 -392.01)"/><rect class="cls-3" x="273.6" y="135.95" width="207.84" height="3.12" rx="1.56"/><text class="cls-5" transform="translate(315.17 160.07)"><tspan xml:space="preserve">S   T   U   D   I   O</tspan></text></svg>