<?xml version="1.0" encoding="utf-8"?>
<!-- Generator: Adobe Illustrator 23.0.1, SVG Export Plug-In . SVG Version: 6.00 Build 0)  -->
<svg version="1.1" id="Layer_1" xmlns="http://www.w3.org/2000/svg" xmlns:xlink="http://www.w3.org/1999/xlink" x="0px" y="0px"
	 viewBox="0 0 16 16" style="enable-background:new 0 0 16 16;" xml:space="preserve">
<style type="text/css">
	.st0{fill:#2B3A51;}
</style>
<path class="st0" d="M7.5,3.8c0,0.4-0.3,0.8-0.8,0.8S6,4.2,6,3.8S6.3,3,6.8,3S7.5,3.3,7.5,3.8z M6.6,5.3L8,6.2l1.9-1.9
	c0.1-0.1,0.2-0.1,0.3,0L11,4.8V7c0,0.3-0.2,0.5-0.5,0.5h-5C5.2,7.5,5,7.3,5,7V6.5C5,6.5,6.5,5.2,6.6,5.3z M5,9.5C5,9.2,5.2,9,5.5,9
	h5C10.8,9,11,9.2,11,9.5S10.8,10,10.5,10h-5C5.2,10,5,9.8,5,9.5z M5,11.5C5,11.2,5.2,11,5.5,11h2C7.8,11,8,11.2,8,11.5
	S7.8,12,7.5,12h-2C5.2,12,5,11.8,5,11.5z"/>
<path class="st0" d="M3,0h10c1.1,0,2,0.9,2,2v12c0,1.1-0.9,2-2,2H3c-1.1,0-2-0.9-2-2v-1h1v1c0,0.6,0.4,1,1,1h10c0.6,0,1-0.4,1-1V2
	c0-0.6-0.4-1-1-1H3C2.4,1,2,1.4,2,2v1H1V2C1,0.9,1.9,0,3,0z"/>
<path class="st0" d="M1,5V4.5C1,4.2,1.2,4,1.5,4S2,4.2,2,4.5V5h0.5C2.8,5,3,5.2,3,5.5S2.8,6,2.5,6h-2C0.2,6,0,5.8,0,5.5S0.2,5,0.5,5
	H1z M1,8V7.5C1,7.2,1.2,7,1.5,7S2,7.2,2,7.5V8h0.5C2.8,8,3,8.2,3,8.5S2.8,9,2.5,9h-2C0.2,9,0,8.8,0,8.5S0.2,8,0.5,8H1z M1,11v-0.5
	C1,10.2,1.2,10,1.5,10S2,10.2,2,10.5V11h0.5C2.8,11,3,11.2,3,11.5S2.8,12,2.5,12h-2C0.2,12,0,11.8,0,11.5S0.2,11,0.5,11H1z"/>
</svg>
